<?xml version="1.0" standalone="no"?><!DOCTYPE svg PUBLIC "-//W3C//DTD SVG 1.1//EN" "http://www.w3.org/Graphics/SVG/1.1/DTD/svg11.dtd"><svg t="1773112932550" class="icon" viewBox="0 0 1024 1024" version="1.1" xmlns="http://www.w3.org/2000/svg" p-id="15309" xmlns:xlink="http://www.w3.org/1999/xlink" width="256" height="256"><path d="M853.333333 361.813333C822.613333 249.173333 720.213333 170.666667 600.746667 170.666667c-54.613333 0-105.813333 17.066667-150.186667 47.786666-6.826667 3.413333-10.24 10.24-6.826667 17.066667s6.826667 10.24 13.653334 13.653333c98.986667 20.48 177.493333 88.746667 215.04 180.906667 3.413333 6.826667 6.826667 10.24 10.24 10.24 102.4 23.893333 170.666667 116.053333 170.666666 221.866667 0 20.48-3.413333 40.96-10.24 61.44 0 6.826667 0 10.24 3.413334 17.066666 3.413333 3.413333 6.826667 6.826667 13.653333 6.826667h3.413333C955.733333 727.04 1024 648.533333 1024 552.96c0-98.986667-75.093333-180.906667-170.666667-191.146667z" fill="" p-id="15310"></path><path d="M648.533333 467.626667c-30.72-112.64-133.12-191.146667-252.586666-191.146667-143.36 0-259.413333 116.053333-259.413334 262.826667v10.24c-75.093333 6.826667-136.533333 71.68-136.533333 150.186666C0 785.066667 68.266667 853.333333 153.6 853.333333h474.453333c105.813333 0 194.56-85.333333 194.56-194.56-3.413333-98.986667-78.506667-180.906667-174.08-191.146666z" fill="" p-id="15311"></path></svg>