<?xml version="1.0" standalone="no"?><!DOCTYPE svg PUBLIC "-//W3C//DTD SVG 1.1//EN" "http://www.w3.org/Graphics/SVG/1.1/DTD/svg11.dtd"><svg class="icon" viewBox="0 0 1024 1024" version="1.1" xmlns="http://www.w3.org/2000/svg" width="64" height="64"><path d="M919.864 313.147L505.492 108.475 92.748 314.004l-1.63 107.643 68.34 33.774-66.71 31.409-1.63 101.647 58.134 27.125-56.504 26.585-1.63 101.684 414.374 193.35 414.372-193.387v-102.43l-56.801-26.491 56.801-26.483V486l-67.044-31.24 67.044-33.113z m-53.263 360.309v38.42l-361.11 168.477-360.57-168.3 0.606-37.675 64.605-30.366 295.36 137.823 296.644-138.447z m0-155.423v38.383l-361.11 168.496-360.57-168.282 0.606-37.675 73.023-34.286 286.942 141.772 288.17-142.424z m0-130.364l-361.11 178.525-360.597-178.209 0.633-39.91 360.058-179.298L866.6 347.125z" fill="#E53935"/></svg>
