<?xml version="1.0" standalone="no"?><!DOCTYPE svg PUBLIC "-//W3C//DTD SVG 1.1//EN" "http://www.w3.org/Graphics/SVG/1.1/DTD/svg11.dtd"><svg t="1767594484591" class="icon" viewBox="0 0 1024 1024" version="1.1" xmlns="http://www.w3.org/2000/svg" p-id="6501" xmlns:xlink="http://www.w3.org/1999/xlink" width="64" height="64"><path d="M829.466422 255.903298h-253.800404v-61.918212c0-36.452213-29.551036-66.00325-66.003249-66.00325H193.945177c-36.452213 0-66.00325 29.551036-66.00325 66.00325v635.521245c0 36.452213 29.551036 66.00325 66.00325 66.00325h635.521245c36.452213 0 66.00325-29.551036 66.00325-66.00325V321.906547c0-36.453237-29.551036-66.00325-66.00325-66.003249z m2.042519 542.3881c0 18.367323-14.890128 33.257451-33.257452 33.257452H225.160109c-18.367323 0-33.257451-14.890128-33.257451-33.257452V225.200018c0-18.367323 14.890128-33.257451 33.257451-33.257451h253.287727c18.367323 0 33.257451 14.890128 33.257452 33.257451v94.66401h286.546201c18.367323 0 33.257451 14.890128 33.257452 33.257452v445.169918z" fill="#2c2c2c" p-id="6502"></path><path d="M191.902658 383.823736h639.606283v63.96073H191.902658z" fill="#2c2c2c" p-id="6503"></path></svg>