<?xml version="1.0" standalone="no"?><!DOCTYPE svg PUBLIC "-//W3C//DTD SVG 1.1//EN" "http://www.w3.org/Graphics/SVG/1.1/DTD/svg11.dtd"><svg t="1767669806348" class="icon" viewBox="0 0 1024 1024" version="1.1" xmlns="http://www.w3.org/2000/svg" p-id="6658" xmlns:xlink="http://www.w3.org/1999/xlink" width="64" height="64"><path d="M522.537374 910.868687H125.349495V116.492929h706.068687v353.09899c0 7.886869 4.266667 15.127273 10.989899 19.135354 6.852525 3.878788 15.256566 3.878788 22.109091 0 6.852525-3.878788 10.989899-11.248485 10.989899-19.135354V94.513131c0-5.818182-2.327273-11.507071-6.464647-15.644444-4.137374-4.137374-9.69697-6.464646-15.644444-6.464647H103.369697c-5.818182 0-11.507071 2.327273-15.644444 6.464647-4.137374 4.137374-6.464646 9.69697-6.464647 15.644444v838.464647c0 5.818182 2.327273 11.507071 6.464647 15.644444 4.137374 4.137374 9.69697 6.464646 15.644444 6.464647h419.29697c12.153535 0 22.109091-9.826263 22.109091-22.109091-0.129293-12.153535-9.955556-22.109091-22.238384-22.109091z" p-id="6659" fill="#ffffff"></path><path d="M316.056566 386.456566c-4.137374 3.620202-8.791919 6.593939-14.09293 8.791919-5.171717 2.068687-10.60202 3.232323-16.161616 3.232323-9.309091 0-17.971717-1.551515-25.729293-4.783838-7.886869-3.10303-15.385859-7.111111-22.367676-11.765657-4.654545-2.973737-9.050505-4.654545-13.187879-4.913131H223.482828c-3.10303 0-7.757576 1.034343-11.894949 6.464646-2.844444 3.878788-5.171717 10.472727-0.258586 19.523233 3.490909 6.464646 10.60202 12.412121 21.721212 18.10101 6.981818 3.361616 15.127273 6.335354 23.919192 8.533333 8.145455 2.068687 16.420202 3.232323 24.824242 3.232323h2.585859c11.765657-0.258586 22.755556-2.327273 32.711111-6.076767 10.084848-3.878788 18.747475-9.309091 25.987879-16.161617 7.240404-6.852525 13.058586-15.256566 16.937374-24.436363 4.008081-9.69697 6.076768-20.040404 5.947474-30.513132 0-9.826263-1.422222-18.747475-4.137373-26.246464-2.715152-7.49899-6.852525-14.351515-12.153536-20.169697-5.559596-5.947475-11.894949-11.119192-19.00606-15.256566-7.886869-4.654545-16.032323-8.921212-24.436364-12.541414-6.852525-2.973737-13.446465-6.076768-19.911111-9.179798-5.688889-2.715152-11.248485-5.818182-16.420202-9.438384-4.266667-2.973737-8.016162-6.852525-10.860606-11.119192-2.585859-4.008081-3.878788-8.791919-3.878788-14.480808 0-9.438384 3.10303-16.937374 9.438384-22.884848 6.335354-6.076768 14.739394-9.050505 25.858586-9.050505h1.292929c6.464646 0 12.8 1.551515 18.488889 4.395959 6.852525 3.232323 12.541414 6.593939 16.937374 9.69697 4.266667 3.10303 9.438384 4.913131 14.739394 4.913131 5.559596 0 10.084848-2.456566 12.929292-7.369697 3.361616-5.818182 3.361616-12.024242 0-17.971717-2.973737-5.171717-7.757576-9.955556-14.480808-13.963636-6.335354-3.878788-13.963636-7.111111-22.755555-9.69697-17.713131-5.171717-37.365657-5.30101-54.30303 0.387879-8.40404 2.715152-16.161616 7.111111-23.014142 12.8-6.723232 5.688889-12.282828 12.8-16.161616 20.816162-4.008081 8.274747-6.076768 17.454545-6.076768 27.539393 0 10.989899 1.810101 20.428283 5.30101 28.185859 3.490909 7.757576 8.662626 14.480808 15.127273 20.040404 6.206061 5.430303 13.705051 10.214141 22.367677 14.351515 8.274747 4.008081 17.454545 8.016162 27.151515 11.765657 4.913131 2.068687 10.084848 4.525253 15.256566 7.369697 4.913131 2.715152 9.309091 6.076768 13.317171 9.955555 3.878788 3.749495 6.981818 8.145455 9.309091 12.929293 2.327273 4.654545 3.490909 9.955556 3.490909 15.903031 0 5.947475-1.163636 11.377778-3.620202 16.420202-2.19798 4.525253-5.559596 8.921212-9.696969 12.670707z m294.4-84.686869c0-17.454545-2.327273-34.391919-6.852526-50.29495-4.654545-16.032323-11.507071-30.254545-20.686868-42.278787-9.179798-12.153535-21.074747-22.109091-34.650505-28.961617-13.834343-7.111111-30.254545-10.731313-48.743435-10.731313-18.747475 0-35.29697 3.620202-49.260606 10.731313-13.705051 6.852525-25.6 16.808081-34.909091 28.961617-9.179798 12.024242-16.032323 26.246465-20.29899 42.278787-4.39596 16.420202-6.593939 33.228283-6.464646 50.29495 0 17.713131 2.327273 34.779798 6.852525 50.682828 4.654545 16.032323 11.507071 30.125253 20.686869 42.278788 9.309091 12.153535 21.20404 22.109091 34.909091 28.961616 13.963636 7.111111 30.383838 10.731313 48.614141 10.731313 15.127273 0 28.70303-2.327273 40.468687-6.981818 10.860606-4.39596 21.074747-10.60202 29.99596-18.230303l12.541414 12.282828c6.206061 6.206061 11.765657 9.438384 17.066667 9.955556 5.559596 0.517172 10.472727-1.680808 13.70505-5.818182 5.688889-6.076768 9.438384-16.420202-5.042424-30.90101l-15.256566-15.256566c6.076768-11.248485 10.60202-23.40202 13.317172-35.943434 2.585859-13.705051 4.137374-27.79798 4.008081-41.761616z m-74.472728 28.70303c-4.137374 1.034343-8.016162 3.232323-11.636363 6.852526-4.654545 5.171717-6.852525 10.084848-6.464647 14.739393 0.258586 4.008081 2.19798 7.49899 5.559596 10.343435l21.850505 21.850505c-5.430303 4.913131-11.765657 8.791919-18.618182 11.377778-8.016162 2.973737-17.19596 4.525253-27.280808 4.525252-13.058586 0-24.307071-2.715152-33.616161-8.016161-9.309091-5.30101-17.19596-12.8-23.014142-21.721213-6.076768-9.179798-10.60202-19.781818-13.575757-31.547474-2.973737-12.153535-4.525253-24.565657-4.525253-37.107071 0-12.929293 1.551515-25.6 4.525253-37.624242 2.973737-11.765657 7.49899-22.367677 13.70505-31.418182 5.947475-8.791919 13.834343-16.290909 23.143435-21.591919 9.179798-5.30101 20.428283-8.016162 33.486868-8.016162 12.8 0 24.048485 2.715152 33.228283 8.016162 9.309091 5.30101 17.325253 12.8 23.272727 21.721212 6.206061 9.179798 10.731313 19.911111 13.705051 31.80606 2.973737 12.024242 4.39596 24.953535 4.39596 38.141414 0 10.731313-0.775758 20.557576-2.456566 29.349495-1.292929 6.981818-3.10303 13.834343-5.430303 20.428283l-16.032323-16.290909c-4.137374-5.042424-9.050505-6.981818-14.222223-5.818182z m137.179798-157.349495c-5.042424 0-9.309091 1.551515-12.8 4.39596-3.620202 3.10303-5.430303 7.49899-5.430303 13.058586V405.979798c0 6.464646 2.068687 11.636364 6.076768 15.515151s9.567677 5.818182 16.678788 5.818182h88.307071c4.783838 0 8.791919-1.292929 12.282828-3.878788 3.749495-2.844444 5.559596-7.240404 5.559596-12.8 0-5.818182-1.810101-10.214141-5.30101-13.187878-3.232323-2.585859-7.49899-4.008081-12.541414-4.008081h-74.343435V190.577778c0-11.119192-6.723232-17.454545-18.488889-17.454546zM740.137374 709.818182zM665.923232 920.953535L549.042424 942.545455l23.531313-114.941415 93.349495 93.349495zM849.389899 550.787879l-41.890909 41.890909 93.349495 93.349495 41.890909-41.890909-93.349495-93.349495zM593.519192 806.658586l93.349495 93.349495 193.034343-193.034344-93.349495-93.349495-193.034343 193.034344z" p-id="6660" fill="#ffffff"></path></svg>